<?xml version="1.0" encoding="UTF-8"?>
<svg id="Layer_1" data-name="Layer 1" xmlns="http://www.w3.org/2000/svg" version="1.1" viewBox="0 0 220 220">
  <defs>
    <style>
      .cls-1 {
        stroke-width: 10.8px;
      }

      .cls-1, .cls-2, .cls-3 {
        fill: none;
        stroke: #fff;
        stroke-linecap: round;
      }

      .cls-2 {
        stroke-width: 2.7px;
      }

      .cls-4 {
        fill: #fff;
        stroke-width: 0px;
      }

      .cls-3 {
        stroke-width: 3.1px;
      }
    </style>
  </defs>
  <!-- Play icon: original coordinates preserved, will be normalized by JS -->
  <g id="icon-play">
    <polygon class="cls-4" points="40 30 40 90 90 60 40 30"/>
  </g>
  
  <!-- Pause icon: original coordinates preserved, will be normalized by JS -->
  <g id="icon-pause">
    <rect class="cls-4" x="135" y="30" width="18.3" height="60"/>
    <rect class="cls-4" x="170" y="30" width="18" height="60"/>
  </g>
  
  <!-- Mute icon: original coordinates preserved, will be normalized by JS -->
  <g id="icon-mute">
    <path class="cls-4" d="M60,135v50l-15-15h-15v-20h15l15-15Z"/>
    <line class="cls-1" x1="67" y1="151" x2="85" y2="169"/>
    <line class="cls-1" x1="85" y1="151" x2="67" y2="169"/>
  </g>
  
  <!-- Unmute icon: original coordinates preserved, will be normalized by JS -->
  <g id="icon-unmute">
    <path class="cls-4" d="M160,135v50l-15-15h-15v-20h15l15-15Z"/>
    <path class="cls-2" d="M166.8,149.1c10.7,0,10.7,21.8,0,21.8"/>
    <path class="cls-3" d="M169.1,140.1c19.7,0,19.7,39.8,0,39.8"/>
  </g>
</svg>
