<?xml version="1.0" encoding="UTF-8"?>
<svg id="Layer_1" data-name="Layer 1" xmlns="http://www.w3.org/2000/svg" version="1.1" viewBox="0 0 346 58.1">
  <defs>
    <style>
      .cls-1 {
        fill: #141432;
        stroke-width: 0px;
      }
    </style>
  </defs>
  <path class="cls-1" d="M121.1,15.5c-4.7,0-8.7,2.6-11.3,6.7-1.1-3.8-4.4-6.7-9.5-6.7s-8.2,2.6-10.2,6.2v-5.5h-7.9v33.3h8.1v-22.3c1.3-2.9,4-5.7,7.2-5.7s5,2.8,5,7.1v21h8.2v-22.3c1.3-2.9,4.3-5.7,7.5-5.7s4.8,2.8,4.8,7.1v21h8.1v-22.2c0-7.4-3.3-11.7-9.9-11.7Z"/>
  <path class="cls-1" d="M152.1,15.4c-9.6,0-16.5,6.7-16.5,17.4s6.9,17.3,16.5,17.3,16.6-6.7,16.6-17.3-7-17.4-16.6-17.4ZM152.1,45.1c-5.6,0-8.1-5.2-8.1-12.3s2.5-12.3,8.1-12.3,8.1,5.2,8.1,12.3-2.4,12.3-8.1,12.3Z"/>
  <path class="cls-1" d="M196.7,20.4c-1.9-2.8-5.3-4.9-10-4.9-7.8,0-14.3,6-14.3,17.3s5.9,17.2,13.4,17.2,9.2-2.8,11.2-6v5.4h7.9V1.2h-8.2v19.2ZM196.7,38.7c-1.3,3.4-4.5,6.1-8.2,6.1s-7.7-4-7.7-12,2.9-12.3,7.9-12.3,6.9,2.7,7.9,6.3v11.9Z"/>
  <path class="cls-1" d="M232.5,38.6c-1.4,3.2-4.6,5.7-7.8,5.7s-5.2-2.2-5.2-7v-21.1h-8.2v22.3c0,7.2,3.2,11.6,10.2,11.6s9-2.8,11.2-6.1v5.5h7.9V16.1h-8.2v22.4Z"/>
  <rect class="cls-1" x="247.4" y="1.2" width="8.1" height="48.2"/>
  <path class="cls-1" d="M288.7,26.6c0-7.5-5.2-11-12.6-11s-11.8,3-13.8,8.7l6.7,1.6c1.1-3,3.5-5.4,6.8-5.4s5.2,1.9,5.2,5.8v3c-2.1,0-4.8.2-7.5.6-7.4.9-12.7,3.8-12.7,10.6s3.9,9.2,9.8,9.2,8.7-2.7,10.8-5.7c0,1.6.4,3.7.6,5.2h7.4c-.3-2.9-.6-6.5-.6-10v-12.8ZM281,39.8c-1.6,2.8-4.5,4.9-7.8,4.9s-4.8-1.6-4.8-4.5,2.3-5.2,6.4-5.8c2.2-.4,4.2-.6,6.2-.6v6.1Z"/>
  <path class="cls-1" d="M304.5,38.5v-16.7h7.8v-5.6h-7.8V6.6h-6.3l-.6,5.9c-.3,3-1.1,3.7-2.8,3.7h-3.2v5.6h4.8v16.9c0,8,3.9,11.2,11.6,11.2s3.9-.3,5-.6v-5c-.9.2-2,.4-3.2.4-3.5,0-5.2-1.8-5.2-6Z"/>
  <path class="cls-1" d="M346,31.1c0-9.5-6.2-15.7-15.2-15.7s-16.2,6.8-16.2,17.4,6.7,17.3,16.3,17.3,12.1-4,14-9.5l-6.4-1.7c-1.1,3.3-3.3,6.2-7.7,6.2s-7.7-4.6-8-11.3h23c0-.7.1-1.6.1-2.7ZM323,29.5c.6-5.5,3.1-9.2,7.8-9.2s7,4.6,7.2,9.2h-15Z"/>
  <polygon class="cls-1" points="31.9 6.6 33.1 0 20 0 18.8 6.6 18.8 6.6 16.6 18.3 15.8 22.4 15.8 22.4 14.6 29 5.4 29 3.7 38.5 0 58.1 16.8 58.1 21 35.7 21 35.7 22.2 29 27.7 29 31.9 6.6 31.9 6.6"/>
  <polygon class="cls-1" points="49.6 51.5 48.3 58.1 53.8 58.1 55 51.5 55 51.5 57.4 38.5 58 35.7 58 35.7 59.2 29 53.8 29 49.6 51.5 49.6 51.5"/>
  <polygon class="cls-1" points="42.4 0 40.4 10.7 37 29 27.7 29 26.4 35.7 26.4 35.7 24 48.6 23.5 51.5 23.5 51.5 22.2 58.1 35.3 58.1 39.5 35.7 39.5 35.7 40.7 29 53.8 29 58 6.6 58 6.6 59.2 0 42.4 0"/>
</svg>