<?xml version="1.0" encoding="UTF-8"?>
<svg id="Layer_1" data-name="Layer 1" xmlns="http://www.w3.org/2000/svg" version="1.1" viewBox="0 0 59.2 58.1">
  <defs>
    <style>
      .cls-1 {
        fill: #141432;
        stroke-width: 0px;
      }
    </style>
  </defs>
  <polygon class="cls-1" points="31.9 6.6 33.1 0 20 0 18.8 6.6 18.8 6.6 16.6 18.3 15.8 22.4 15.8 22.4 14.6 29 5.4 29 3.7 38.5 0 58.1 16.8 58.1 21 35.7 21 35.7 22.2 29 27.7 29 31.9 6.6 31.9 6.6"/>
  <polygon class="cls-1" points="49.6 51.5 48.3 58.1 53.8 58.1 55 51.5 55 51.5 57.4 38.5 58 35.7 58 35.7 59.2 29 53.8 29 49.6 51.5 49.6 51.5"/>
  <polygon class="cls-1" points="42.4 0 40.4 10.7 37 29 27.7 29 26.4 35.7 26.4 35.7 24 48.6 23.5 51.5 23.5 51.5 22.2 58.1 35.3 58.1 39.5 35.7 39.5 35.7 40.7 29 53.8 29 58 6.6 58 6.6 59.2 0 42.4 0"/>
</svg>